<?xml version="1.0" encoding="UTF-8"?> <svg xmlns="http://www.w3.org/2000/svg" width="30" height="42" viewBox="0 0 30 42" fill="none"><path d="M0.663352 41.9999V35.7954L15.1605 22.3721C16.3935 21.1789 17.4276 20.105 18.2628 19.1505C19.1113 18.1959 19.7543 17.2613 20.1918 16.3465C20.6293 15.4185 20.848 14.4175 20.848 13.3437C20.848 12.1505 20.5762 11.123 20.0327 10.2613C19.4891 9.38628 18.7467 8.71677 17.8054 8.25275C16.8641 7.77548 15.7969 7.53684 14.6037 7.53684C13.3575 7.53684 12.2704 7.78874 11.3423 8.29253C10.4143 8.79631 9.69839 9.51885 9.1946 10.4601C8.69081 11.4014 8.43892 12.5217 8.43892 13.8209H0.265625C0.265625 11.1562 0.868845 8.84272 2.07528 6.88059C3.28172 4.91847 4.97206 3.40048 7.14631 2.32661C9.32055 1.25275 11.8262 0.71582 14.6634 0.71582C17.58 0.71582 20.1188 1.23287 22.2798 2.26696C24.4541 3.28779 26.1444 4.70635 27.3509 6.52264C28.5573 8.33893 29.1605 10.4204 29.1605 12.767C29.1605 14.3048 28.8556 15.8228 28.2457 17.3209C27.6491 18.819 26.5819 20.4829 25.044 22.3124C23.5062 24.1287 21.3385 26.3096 18.5412 28.855L12.5952 34.6817V34.9601H29.6974V41.9999H0.663352Z" fill="#009C64"></path></svg> 