<?xml version="1.0" encoding="UTF-8"?> <svg xmlns="http://www.w3.org/2000/svg" width="32" height="43" viewBox="0 0 32 43" fill="none"><path d="M15.897 42.5567C12.9273 42.5567 10.2824 42.0463 7.96236 41.0255C5.65554 39.9914 3.83262 38.5728 2.49361 36.7698C1.16785 34.9535 0.485085 32.8588 0.445312 30.4857H9.11577C9.1688 31.48 9.49361 32.355 10.0902 33.1107C10.7 33.8531 11.5088 34.4298 12.5163 34.8408C13.5239 35.2518 14.6574 35.4573 15.9169 35.4573C17.2294 35.4573 18.3894 35.2253 19.397 34.7613C20.4046 34.2973 21.1934 33.6543 21.7635 32.8323C22.3336 32.0103 22.6186 31.0624 22.6186 29.9885C22.6186 28.9014 22.3137 27.9403 21.7038 27.105C21.1072 26.2565 20.2455 25.5937 19.1186 25.1164C18.005 24.6391 16.6792 24.4005 15.1413 24.4005H11.343V18.0766H15.1413C16.4406 18.0766 17.5874 17.8512 18.5817 17.4005C19.5893 16.9497 20.3714 16.3266 20.9283 15.5312C21.4851 14.7224 21.7635 13.7812 21.7635 12.7073C21.7635 11.6865 21.5182 10.7916 21.0277 10.0226C20.5504 9.24044 19.8743 8.63059 18.9993 8.19309C18.1375 7.75559 17.13 7.53684 15.9766 7.53684C14.8099 7.53684 13.7427 7.74897 12.7749 8.17321C11.8071 8.58419 11.0315 9.17415 10.4482 9.94309C9.86482 10.712 9.55327 11.6135 9.51349 12.6476H1.26065C1.30043 10.301 1.96993 8.23287 3.26918 6.44309C4.56842 4.65332 6.31842 3.25465 8.51918 2.24707C10.7332 1.22624 13.2322 0.71582 16.0163 0.71582C18.8269 0.71582 21.2862 1.22624 23.3942 2.24707C25.5021 3.2679 27.1394 4.64669 28.3061 6.38343C29.486 8.10692 30.0694 10.0425 30.0561 12.1903C30.0694 14.4706 29.3601 16.373 27.9283 17.8976C26.5097 19.4223 24.6603 20.3901 22.38 20.801V21.1192C25.3762 21.5037 27.6565 22.5444 29.2209 24.2414C30.7985 25.9251 31.5807 28.0331 31.5675 30.5653C31.5807 32.8853 30.9112 34.9469 29.559 36.7499C28.2199 38.5529 26.3705 39.9715 24.0107 41.0056C21.6508 42.0397 18.9463 42.5567 15.897 42.5567Z" fill="#009C64"></path></svg> 