<?xml version="1.0" encoding="UTF-8"?> <svg xmlns="http://www.w3.org/2000/svg" width="1440" height="748" viewBox="0 0 1440 748" fill="none"><mask id="mask0_865_4" style="mask-type:alpha" maskUnits="userSpaceOnUse" x="0" y="0" width="1440" height="748"><rect width="1440" height="748" fill="white"></rect></mask><g mask="url(#mask0_865_4)"><path d="M851.665 737.655C823.912 745.447 803.921 711.268 824.317 690.898L1897.1 -380.513C1907.84 -391.244 1925.25 -391.238 1935.99 -380.5C1946.73 -369.757 1946.73 -352.34 1935.99 -341.597L863.892 730.498C860.497 733.893 856.287 736.358 851.665 737.655Z" fill="#EA973E"></path><path d="M1011.42 749.327C984.244 754.639 966.645 721.512 986.262 701.963L1604.76 85.5999C1615.52 74.886 1632.91 74.901 1643.64 85.6336C1654.39 96.3835 1654.39 113.814 1643.63 124.558L1025.86 741.649C1021.92 745.586 1016.89 748.259 1011.42 749.327Z" fill="#EA973E"></path><path d="M758.264 627.249C747.626 616.619 747.621 599.377 758.255 588.741L1152.25 194.657C1162.98 183.92 1180.39 183.919 1191.13 194.654C1201.87 205.395 1201.86 222.811 1191.11 233.543L796.744 627.258C786.112 637.872 768.892 637.869 758.264 627.249Z" fill="#EA973E"></path><path d="M783.313 439.448C772.673 428.813 772.67 411.566 783.305 400.926L948.717 235.435C959.445 224.702 976.843 224.7 987.574 235.43C998.316 246.172 998.301 263.593 987.54 274.316L821.799 439.479C811.157 450.083 793.938 450.07 783.313 439.448Z" fill="#EA973E"></path><path d="M1191.31 728.403C1180.67 717.772 1180.67 700.529 1191.3 689.893L1530.6 350.512C1541.33 339.776 1558.73 339.774 1569.47 350.509C1580.21 361.25 1580.2 378.667 1569.45 389.397L1229.79 728.414C1219.16 739.028 1201.94 739.023 1191.31 728.403Z" fill="#EA973E"></path></g></svg> 