<?xml version="1.0" encoding="UTF-8"?> <svg xmlns="http://www.w3.org/2000/svg" width="801" height="801" viewBox="0 0 801 801" fill="none"><rect width="801" height="801" fill="white"></rect><mask id="mask0_1050_12" style="mask-type:alpha" maskUnits="userSpaceOnUse" x="0" y="0" width="801" height="801"><rect width="801" height="801" fill="#D9D9D9"></rect></mask><g mask="url(#mask0_1050_12)"><path d="M372.877 516.264C349.079 516.264 337.175 487.479 354.022 470.671L915.742 -89.7737C925.995 -100.003 942.595 -99.9934 952.836 -89.7526V-89.7526C963.085 -79.5036 963.085 -62.8866 952.836 -52.6376L391.753 508.445C386.747 513.452 379.957 516.264 372.877 516.264V516.264Z" fill="#818285" fill-opacity="0.05"></path><path d="M537.623 516.629C513.776 516.629 501.865 487.768 518.771 470.949L906.093 85.616C916.353 75.4089 932.938 75.4303 943.171 85.6638V85.6638C953.429 95.9219 953.423 112.556 943.156 122.805L556.509 508.815C551.497 513.819 544.705 516.629 537.623 516.629V516.629Z" fill="#818285" fill-opacity="0.05"></path><path d="M273.306 280.523C253.554 275.022 247.105 250.242 261.669 235.81L465.885 33.4489C476.157 23.2696 492.725 23.3074 502.951 33.5334V33.5334C513.221 43.8031 513.209 60.4572 502.924 70.7119L299.337 273.705C292.521 280.501 282.577 283.105 273.306 280.523V280.523Z" fill="#818285" fill-opacity="0.05"></path><path d="M317.64 383.334C307.493 373.195 307.488 356.749 317.63 346.605L693.422 -29.2711C703.66 -39.5115 720.261 -39.5124 730.5 -29.2731V-29.2731C740.745 -19.0288 740.738 -2.41721 730.485 7.81872L354.341 383.342C344.201 393.466 327.776 393.463 317.64 383.334V383.334Z" fill="#818285" fill-opacity="0.05"></path><path d="M730.678 479.818C720.53 469.675 720.527 453.227 730.67 443.079L915.107 258.565C925.341 248.327 941.937 248.325 952.172 258.561V258.561C962.418 268.806 962.405 285.421 952.144 295.651L767.385 479.843C757.236 489.96 740.812 489.949 730.678 479.818V479.818Z" fill="#818285" fill-opacity="0.05"></path></g></svg> 