<?xml version="1.0" encoding="UTF-8"?> <svg xmlns="http://www.w3.org/2000/svg" width="1440" height="750" viewBox="0 0 1440 750" fill="none"><rect width="1440" height="750" fill="white"></rect><mask id="mask0_1514_19" style="mask-type:alpha" maskUnits="userSpaceOnUse" x="0" y="0" width="699" height="629"><rect width="699" height="628.087" transform="matrix(-1 0 0 1 699 0)" fill="#D9D9D9"></rect></mask><g mask="url(#mask0_1514_19)"><path d="M599.765 498.884C627.106 506.56 646.8 472.888 626.707 452.82L-430.151 -602.688C-440.736 -613.26 -457.886 -613.255 -468.465 -602.676C-479.048 -592.093 -479.048 -574.933 -468.465 -564.35L587.719 491.833C591.063 495.178 595.211 497.606 599.765 498.884Z" fill="#D9D9D9" fill-opacity="0.2"></path><path d="M442.375 510.383C469.152 515.616 486.489 482.981 467.164 463.722L-142.159 -143.493C-152.751 -154.048 -169.889 -154.033 -180.462 -143.46C-191.052 -132.87 -191.048 -115.698 -180.451 -105.113L428.156 502.819C432.039 506.697 436.989 509.33 442.375 510.383Z" fill="#D9D9D9" fill-opacity="0.2"></path><path d="M691.778 390.116C702.259 379.644 702.263 362.657 691.788 352.179L303.64 -36.056C293.065 -46.6331 275.918 -46.6341 265.342 -36.0582C254.761 -25.477 254.768 -8.31919 265.358 2.2533L653.869 390.125C664.344 400.582 681.309 400.578 691.778 390.116Z" fill="#D9D9D9" fill-opacity="0.2"></path><path d="M667.103 205.104C677.584 194.627 677.588 177.636 667.111 167.154L504.154 4.11872C493.585 -6.45511 476.445 -6.45717 465.873 4.11413C455.291 14.6967 455.306 31.8591 465.907 42.4232L629.188 205.134C639.672 215.581 656.635 215.568 667.103 205.104Z" fill="#D9D9D9" fill-opacity="0.2"></path><path d="M265.158 489.769C275.638 479.295 275.642 462.309 265.167 451.83L-69.0911 117.486C-79.6651 106.909 -96.8114 106.908 -107.387 117.484C-117.968 128.065 -117.96 145.223 -107.369 155.795L227.248 489.78C237.724 500.236 254.689 500.231 265.158 489.769Z" fill="#D9D9D9" fill-opacity="0.2"></path></g></svg> 