<?xml version="1.0" encoding="UTF-8"?> <svg xmlns="http://www.w3.org/2000/svg" width="1440" height="750" viewBox="0 0 1440 750" fill="none"><rect width="1440" height="750" fill="white"></rect><mask id="mask0_983_54" style="mask-type:alpha" maskUnits="userSpaceOnUse" x="0" y="0" width="1440" height="750"><rect width="1440" height="750" fill="white"></rect></mask><g mask="url(#mask0_983_54)"><mask id="mask1_983_54" style="mask-type:alpha" maskUnits="userSpaceOnUse" x="726" y="-9" width="759" height="682"><rect x="726" y="-9" width="759" height="682" fill="#D9D9D9"></rect></mask><g mask="url(#mask1_983_54)"><path d="M833.758 532.706C804.07 541.041 782.685 504.479 804.503 482.689L1952.08 -663.421C1963.57 -674.901 1982.19 -674.895 1993.68 -663.408C2005.17 -651.916 2005.17 -633.284 1993.68 -621.792L846.838 525.05C843.207 528.682 838.702 531.318 833.758 532.706Z" fill="#D9D9D9" fill-opacity="0.1"></path><path d="M1004.66 545.192C975.58 550.875 956.754 515.438 977.739 494.526L1639.36 -164.811C1650.86 -176.272 1669.47 -176.256 1680.95 -164.775C1692.45 -153.275 1692.45 -134.629 1680.94 -123.136L1020.09 536.979C1015.88 541.19 1010.5 544.049 1004.66 545.192Z" fill="#D9D9D9" fill-opacity="0.1"></path><path d="M733.845 414.603C722.465 403.231 722.46 384.787 733.835 373.409L1155.3 -48.151C1166.78 -59.636 1185.4 -59.637 1196.89 -48.1533C1208.37 -36.6638 1208.37 -18.0333 1196.87 -6.55328L775.008 414.612C763.635 425.966 745.214 425.962 733.845 414.603Z" fill="#D9D9D9" fill-opacity="0.1"></path><path d="M760.64 213.71C749.259 202.332 749.255 183.883 760.631 172.501L937.576 -4.52803C949.052 -16.0095 967.663 -16.0117 979.142 -4.53303C990.633 6.95794 990.617 25.5935 979.106 37.0644L801.809 213.742C790.425 225.086 772.006 225.072 760.64 213.71Z" fill="#D9D9D9" fill-opacity="0.1"></path><path d="M1197.09 522.809C1185.71 511.437 1185.7 492.992 1197.08 481.614L1560.03 118.571C1571.51 107.086 1590.13 107.085 1601.61 118.568C1613.1 130.058 1613.09 148.689 1601.59 160.168L1238.25 522.821C1226.87 534.175 1208.45 534.169 1197.09 522.809Z" fill="#D9D9D9" fill-opacity="0.1"></path></g></g></svg> 