<?xml version="1.0" encoding="UTF-8"?> <svg xmlns="http://www.w3.org/2000/svg" width="1439" height="586" viewBox="0 0 1439 586" fill="none"><rect width="1439" height="586" fill="white"></rect><mask id="mask0_1662_31" style="mask-type:alpha" maskUnits="userSpaceOnUse" x="0" y="0" width="1439" height="586"><rect width="1439" height="586" fill="white"></rect></mask><g mask="url(#mask0_1662_31)"><mask id="mask1_1662_31" style="mask-type:alpha" maskUnits="userSpaceOnUse" x="-1" y="-2" width="699" height="629"><rect width="699" height="628.087" transform="matrix(-1 0 0 1 698 -2)" fill="#D9D9D9"></rect></mask><g mask="url(#mask1_1662_31)"><path d="M598.765 496.884C626.106 504.56 645.8 470.888 625.707 450.82L-431.151 -604.688C-441.736 -615.26 -458.886 -615.255 -469.465 -604.676C-480.048 -594.093 -480.048 -576.933 -469.465 -566.35L586.719 489.833C590.063 493.178 594.211 495.606 598.765 496.884Z" fill="#D9D9D9" fill-opacity="0.2"></path><path d="M441.375 508.383C468.152 513.616 485.489 480.981 466.164 461.722L-143.159 -145.493C-153.751 -156.048 -170.889 -156.033 -181.462 -145.46C-192.052 -134.87 -192.048 -117.698 -181.451 -107.113L427.156 500.819C431.039 504.697 435.989 507.33 441.375 508.383Z" fill="#D9D9D9" fill-opacity="0.2"></path><path d="M690.778 388.116C701.259 377.644 701.263 360.657 690.788 350.179L302.64 -38.056C292.065 -48.6331 274.918 -48.6341 264.342 -38.0582C253.761 -27.477 253.768 -10.3192 264.358 0.253302L652.869 388.125C663.344 398.582 680.309 398.578 690.778 388.116Z" fill="#D9D9D9" fill-opacity="0.2"></path><path d="M666.103 203.104C676.584 192.627 676.588 175.636 666.111 165.154L503.154 2.11872C492.585 -8.45511 475.445 -8.45717 464.873 2.11413C454.291 12.6967 454.306 29.8591 464.907 40.4232L628.188 203.134C638.672 213.581 655.635 213.568 666.103 203.104Z" fill="#D9D9D9" fill-opacity="0.2"></path><path d="M264.158 487.769C274.638 477.295 274.642 460.309 264.167 449.83L-70.0911 115.486C-80.6651 104.909 -97.8114 104.908 -108.387 115.484C-118.968 126.065 -118.96 143.223 -108.369 153.795L226.248 487.78C236.724 498.236 253.689 498.231 264.158 487.769Z" fill="#D9D9D9" fill-opacity="0.2"></path></g></g></svg> 