<?xml version="1.0" encoding="UTF-8"?> <svg xmlns="http://www.w3.org/2000/svg" width="1440" height="345" viewBox="0 0 1440 345" fill="none"><mask id="mask0_1652_5" style="mask-type:alpha" maskUnits="userSpaceOnUse" x="0" y="0" width="1440" height="345"><rect width="1440" height="345" fill="white"></rect></mask><g mask="url(#mask0_1652_5)"><path d="M500.264 338.302C480.537 338.302 470.669 314.441 484.634 300.508L950.262 -164.063C958.761 -172.542 972.521 -172.534 981.01 -164.045C989.506 -155.549 989.506 -141.775 981.01 -133.279L515.911 331.82C511.761 335.97 506.132 338.302 500.264 338.302Z" fill="#818285" fill-opacity="0.05"></path><path d="M636.829 338.604C617.061 338.604 607.188 314.68 621.201 300.738L942.265 -18.6767C950.769 -27.1377 964.517 -27.12 973 -18.6371C981.504 -10.1338 981.498 3.65448 972.988 12.1507L652.483 332.127C648.329 336.274 642.699 338.604 636.829 338.604Z" fill="#818285" fill-opacity="0.05"></path><path d="M417.726 142.888C401.354 138.328 396.008 117.787 408.081 105.824L577.361 -61.9196C585.877 -70.3575 599.61 -70.3261 608.087 -61.8495C616.6 -53.3366 616.59 -39.5315 608.064 -31.0311L439.304 137.236C433.655 142.869 425.412 145.028 417.726 142.888Z" fill="#818285" fill-opacity="0.05"></path><path d="M454.477 228.111C446.065 219.707 446.062 206.074 454.469 197.665L765.974 -113.91C774.461 -122.399 788.222 -122.4 796.71 -113.912C805.202 -105.42 805.196 -91.6503 796.697 -83.1655L484.9 228.118C476.494 236.51 462.879 236.507 454.477 228.111Z" fill="#818285" fill-opacity="0.05"></path><path d="M796.855 308.09C788.443 299.682 788.44 286.048 796.848 277.636L949.734 124.686C958.217 116.2 971.974 116.198 980.459 124.683C988.951 133.176 988.941 146.949 980.435 155.428L827.282 308.111C818.87 316.497 805.256 316.488 796.855 308.09Z" fill="#818285" fill-opacity="0.05"></path></g></svg> 